<svg width="142" height="76" viewBox="0 0 142 76" fill="none" xmlns="http://www.w3.org/2000/svg">
<mask id="path-1-outside-1" maskUnits="userSpaceOnUse" x="0" y="0" width="142" height="76" fill="black">
<rect fill="white" width="142" height="76"/>
<path d="M12.0859 29.5234V5.07812H5.35938V13.3984H1.32812V1H27.7422V13.3984H23.7109V5.07812H17.0078V29.5234H21.25V33.6016H7.91406V29.5234H12.0859Z"/>
<path d="M34.3272 29.5234V5.07812H29.8506V1H43.0928C45.8584 1 48.0537 1.21875 49.6787 1.65625C51.3037 2.07812 52.6475 2.98438 53.71 4.375C54.7725 5.75 55.3037 7.46875 55.3037 9.53125C55.3037 13.8438 53.0616 16.5547 48.5772 17.6641L54.3428 29.5234H58.3272V33.6016H51.2725L43.8428 18.3672H39.2491V29.5234H43.4209V33.6016H29.8506V29.5234H34.3272ZM39.2491 14.2891H43.0928C44.9522 14.2891 46.3194 14.1719 47.1944 13.9375C48.085 13.6875 48.8116 13.1953 49.3741 12.4609C49.9366 11.7109 50.2178 10.7109 50.2178 9.46094C50.2178 8.39844 49.9287 7.5 49.3506 6.76562C48.7881 6.03125 48.085 5.57031 47.2412 5.38281C46.4131 5.17969 45.1397 5.07812 43.4209 5.07812H39.2491V14.2891Z"/>
<path d="M68.8028 5.07812V21.3906C68.8028 23.9219 68.9278 25.6719 69.1778 26.6406C69.4434 27.6094 70.0919 28.4375 71.1231 29.125C72.1544 29.7969 73.4825 30.1328 75.1075 30.1328C77.045 30.1328 78.5294 29.8438 79.5606 29.2656C80.5919 28.6719 81.2716 27.8828 81.5997 26.8984C81.9434 25.8984 82.1153 24.1406 82.1153 21.625V5.07812H78.3419V1H91.0919V5.07812H87.0137V22.1172C87.0137 24.4141 86.9122 26.0859 86.7091 27.1328C86.5216 28.1641 85.9981 29.25 85.1387 30.3906C84.2794 31.5156 83.0684 32.4219 81.5059 33.1094C79.9434 33.7812 78.045 34.1172 75.8106 34.1172C73.3419 34.1172 71.2872 33.8047 69.6466 33.1797C68.0059 32.5391 66.7716 31.6875 65.9434 30.625C65.1153 29.5625 64.5606 28.4297 64.2794 27.2266C64.0137 26.0234 63.8809 24.1562 63.8809 21.625V5.07812H59.8497V1H72.67V5.07812H68.8028Z"/>
<path d="M98.1925 29.5234V5.07812H93.9737V1H121.067V10.8203H117.036V5.07812H103.114V14.7812H115.232V18.8594H103.114V29.5234H117.036V23.5938H121.067V33.6016H93.9737V29.5234H98.1925Z"/>
<path d="M5.66406 69.5234V45.0781H1V41H12.1328L26.4297 66.3359V45.0781H21.8125V41H35.1953V45.0781H30.3906V73.9297H25.3281L9.69531 46.1094V69.5234H14.3594V73.6016H1V69.5234H5.66406Z"/>
<path d="M41.8037 69.5234V45.0781H37.585V41H64.6787V50.8203H60.6475V45.0781H46.7256V54.7812H58.8428V58.8594H46.7256V69.5234H60.6475V63.5938H64.6787V73.6016H37.585V69.5234H41.8037Z"/>
<path d="M79.4434 73.9297L71.1466 45.0781H67.2325V41H79.7012V45.0781H75.7872L81.9512 66.4062L87.8809 45.0781H83.9903V41H98.9669V45.0781H95.1466L101.1 66.4062L107.147 45.0781H103.279V41H115.256V45.0781H111.412L103.279 73.9297H98.6153L91.2794 48.1484L83.9903 73.9297H79.4434Z"/>
<path d="M117.857 73.6016V61.7656H121.935V64.6484C123.888 68.1953 126.443 69.9688 129.599 69.9688C131.208 69.9688 132.568 69.4766 133.677 68.4922C134.786 67.5078 135.341 66.2188 135.341 64.625C135.341 63.0781 134.888 61.9688 133.982 61.2969C133.075 60.6094 131.364 59.9297 128.849 59.2578C125.927 58.4766 123.763 57.7422 122.357 57.0547C120.95 56.3516 119.825 55.3594 118.982 54.0781C118.153 52.7812 117.739 51.25 117.739 49.4844C117.739 46.75 118.646 44.5703 120.458 42.9453C122.286 41.3047 124.575 40.4844 127.325 40.4844C129.935 40.4844 132.357 41.3281 134.591 43.0156V40.8359H138.575V50.7266H134.591V48.4531C132.919 45.9375 130.614 44.6797 127.677 44.6797C125.896 44.6797 124.528 45.0938 123.575 45.9219C122.622 46.7344 122.146 47.7109 122.146 48.8516C122.146 49.7266 122.388 50.5 122.872 51.1719C123.357 51.8281 123.974 52.3125 124.724 52.625C125.474 52.9375 126.95 53.375 129.153 53.9375C132.028 54.6875 134.114 55.3906 135.411 56.0469C136.708 56.6875 137.825 57.7656 138.763 59.2812C139.7 60.7969 140.169 62.5391 140.169 64.5078C140.169 67.2891 139.185 69.5859 137.216 71.3984C135.263 73.2109 132.841 74.1172 129.95 74.1172C126.982 74.1172 124.31 73.0469 121.935 70.9062V73.6016H117.857Z"/>
</mask>
<path d="M12.0859 29.5234V5.07812H5.35938V13.3984H1.32812V1H27.7422V13.3984H23.7109V5.07812H17.0078V29.5234H21.25V33.6016H7.91406V29.5234H12.0859Z" fill="white"/>
<path d="M34.3272 29.5234V5.07812H29.8506V1H43.0928C45.8584 1 48.0537 1.21875 49.6787 1.65625C51.3037 2.07812 52.6475 2.98438 53.71 4.375C54.7725 5.75 55.3037 7.46875 55.3037 9.53125C55.3037 13.8438 53.0616 16.5547 48.5772 17.6641L54.3428 29.5234H58.3272V33.6016H51.2725L43.8428 18.3672H39.2491V29.5234H43.4209V33.6016H29.8506V29.5234H34.3272ZM39.2491 14.2891H43.0928C44.9522 14.2891 46.3194 14.1719 47.1944 13.9375C48.085 13.6875 48.8116 13.1953 49.3741 12.4609C49.9366 11.7109 50.2178 10.7109 50.2178 9.46094C50.2178 8.39844 49.9287 7.5 49.3506 6.76562C48.7881 6.03125 48.085 5.57031 47.2412 5.38281C46.4131 5.17969 45.1397 5.07812 43.4209 5.07812H39.2491V14.2891Z" fill="white"/>
<path d="M68.8028 5.07812V21.3906C68.8028 23.9219 68.9278 25.6719 69.1778 26.6406C69.4434 27.6094 70.0919 28.4375 71.1231 29.125C72.1544 29.7969 73.4825 30.1328 75.1075 30.1328C77.045 30.1328 78.5294 29.8438 79.5606 29.2656C80.5919 28.6719 81.2716 27.8828 81.5997 26.8984C81.9434 25.8984 82.1153 24.1406 82.1153 21.625V5.07812H78.3419V1H91.0919V5.07812H87.0137V22.1172C87.0137 24.4141 86.9122 26.0859 86.7091 27.1328C86.5216 28.1641 85.9981 29.25 85.1387 30.3906C84.2794 31.5156 83.0684 32.4219 81.5059 33.1094C79.9434 33.7812 78.045 34.1172 75.8106 34.1172C73.3419 34.1172 71.2872 33.8047 69.6466 33.1797C68.0059 32.5391 66.7716 31.6875 65.9434 30.625C65.1153 29.5625 64.5606 28.4297 64.2794 27.2266C64.0137 26.0234 63.8809 24.1562 63.8809 21.625V5.07812H59.8497V1H72.67V5.07812H68.8028Z" fill="white"/>
<path d="M98.1925 29.5234V5.07812H93.9737V1H121.067V10.8203H117.036V5.07812H103.114V14.7812H115.232V18.8594H103.114V29.5234H117.036V23.5938H121.067V33.6016H93.9737V29.5234H98.1925Z" fill="white"/>
<path d="M5.66406 69.5234V45.0781H1V41H12.1328L26.4297 66.3359V45.0781H21.8125V41H35.1953V45.0781H30.3906V73.9297H25.3281L9.69531 46.1094V69.5234H14.3594V73.6016H1V69.5234H5.66406Z" fill="white"/>
<path d="M41.8037 69.5234V45.0781H37.585V41H64.6787V50.8203H60.6475V45.0781H46.7256V54.7812H58.8428V58.8594H46.7256V69.5234H60.6475V63.5938H64.6787V73.6016H37.585V69.5234H41.8037Z" fill="white"/>
<path d="M79.4434 73.9297L71.1466 45.0781H67.2325V41H79.7012V45.0781H75.7872L81.9512 66.4062L87.8809 45.0781H83.9903V41H98.9669V45.0781H95.1466L101.1 66.4062L107.147 45.0781H103.279V41H115.256V45.0781H111.412L103.279 73.9297H98.6153L91.2794 48.1484L83.9903 73.9297H79.4434Z" fill="white"/>
<path d="M117.857 73.6016V61.7656H121.935V64.6484C123.888 68.1953 126.443 69.9688 129.599 69.9688C131.208 69.9688 132.568 69.4766 133.677 68.4922C134.786 67.5078 135.341 66.2188 135.341 64.625C135.341 63.0781 134.888 61.9688 133.982 61.2969C133.075 60.6094 131.364 59.9297 128.849 59.2578C125.927 58.4766 123.763 57.7422 122.357 57.0547C120.95 56.3516 119.825 55.3594 118.982 54.0781C118.153 52.7812 117.739 51.25 117.739 49.4844C117.739 46.75 118.646 44.5703 120.458 42.9453C122.286 41.3047 124.575 40.4844 127.325 40.4844C129.935 40.4844 132.357 41.3281 134.591 43.0156V40.8359H138.575V50.7266H134.591V48.4531C132.919 45.9375 130.614 44.6797 127.677 44.6797C125.896 44.6797 124.528 45.0938 123.575 45.9219C122.622 46.7344 122.146 47.7109 122.146 48.8516C122.146 49.7266 122.388 50.5 122.872 51.1719C123.357 51.8281 123.974 52.3125 124.724 52.625C125.474 52.9375 126.95 53.375 129.153 53.9375C132.028 54.6875 134.114 55.3906 135.411 56.0469C136.708 56.6875 137.825 57.7656 138.763 59.2812C139.7 60.7969 140.169 62.5391 140.169 64.5078C140.169 67.2891 139.185 69.5859 137.216 71.3984C135.263 73.2109 132.841 74.1172 129.95 74.1172C126.982 74.1172 124.31 73.0469 121.935 70.9062V73.6016H117.857Z" fill="white"/>
<path d="M12.0859 29.5234V5.07812H5.35938V13.3984H1.32812V1H27.7422V13.3984H23.7109V5.07812H17.0078V29.5234H21.25V33.6016H7.91406V29.5234H12.0859Z" stroke="black" stroke-width="2" mask="url(#path-1-outside-1)"/>
<path d="M34.3272 29.5234V5.07812H29.8506V1H43.0928C45.8584 1 48.0537 1.21875 49.6787 1.65625C51.3037 2.07812 52.6475 2.98438 53.71 4.375C54.7725 5.75 55.3037 7.46875 55.3037 9.53125C55.3037 13.8438 53.0616 16.5547 48.5772 17.6641L54.3428 29.5234H58.3272V33.6016H51.2725L43.8428 18.3672H39.2491V29.5234H43.4209V33.6016H29.8506V29.5234H34.3272ZM39.2491 14.2891H43.0928C44.9522 14.2891 46.3194 14.1719 47.1944 13.9375C48.085 13.6875 48.8116 13.1953 49.3741 12.4609C49.9366 11.7109 50.2178 10.7109 50.2178 9.46094C50.2178 8.39844 49.9287 7.5 49.3506 6.76562C48.7881 6.03125 48.085 5.57031 47.2412 5.38281C46.4131 5.17969 45.1397 5.07812 43.4209 5.07812H39.2491V14.2891Z" stroke="black" stroke-width="2" mask="url(#path-1-outside-1)"/>
<path d="M68.8028 5.07812V21.3906C68.8028 23.9219 68.9278 25.6719 69.1778 26.6406C69.4434 27.6094 70.0919 28.4375 71.1231 29.125C72.1544 29.7969 73.4825 30.1328 75.1075 30.1328C77.045 30.1328 78.5294 29.8438 79.5606 29.2656C80.5919 28.6719 81.2716 27.8828 81.5997 26.8984C81.9434 25.8984 82.1153 24.1406 82.1153 21.625V5.07812H78.3419V1H91.0919V5.07812H87.0137V22.1172C87.0137 24.4141 86.9122 26.0859 86.7091 27.1328C86.5216 28.1641 85.9981 29.25 85.1387 30.3906C84.2794 31.5156 83.0684 32.4219 81.5059 33.1094C79.9434 33.7812 78.045 34.1172 75.8106 34.1172C73.3419 34.1172 71.2872 33.8047 69.6466 33.1797C68.0059 32.5391 66.7716 31.6875 65.9434 30.625C65.1153 29.5625 64.5606 28.4297 64.2794 27.2266C64.0137 26.0234 63.8809 24.1562 63.8809 21.625V5.07812H59.8497V1H72.67V5.07812H68.8028Z" stroke="black" stroke-width="2" mask="url(#path-1-outside-1)"/>
<path d="M98.1925 29.5234V5.07812H93.9737V1H121.067V10.8203H117.036V5.07812H103.114V14.7812H115.232V18.8594H103.114V29.5234H117.036V23.5938H121.067V33.6016H93.9737V29.5234H98.1925Z" stroke="black" stroke-width="2" mask="url(#path-1-outside-1)"/>
<path d="M5.66406 69.5234V45.0781H1V41H12.1328L26.4297 66.3359V45.0781H21.8125V41H35.1953V45.0781H30.3906V73.9297H25.3281L9.69531 46.1094V69.5234H14.3594V73.6016H1V69.5234H5.66406Z" stroke="black" stroke-width="2" mask="url(#path-1-outside-1)"/>
<path d="M41.8037 69.5234V45.0781H37.585V41H64.6787V50.8203H60.6475V45.0781H46.7256V54.7812H58.8428V58.8594H46.7256V69.5234H60.6475V63.5938H64.6787V73.6016H37.585V69.5234H41.8037Z" stroke="black" stroke-width="2" mask="url(#path-1-outside-1)"/>
<path d="M79.4434 73.9297L71.1466 45.0781H67.2325V41H79.7012V45.0781H75.7872L81.9512 66.4062L87.8809 45.0781H83.9903V41H98.9669V45.0781H95.1466L101.1 66.4062L107.147 45.0781H103.279V41H115.256V45.0781H111.412L103.279 73.9297H98.6153L91.2794 48.1484L83.9903 73.9297H79.4434Z" stroke="black" stroke-width="2" mask="url(#path-1-outside-1)"/>
<path d="M117.857 73.6016V61.7656H121.935V64.6484C123.888 68.1953 126.443 69.9688 129.599 69.9688C131.208 69.9688 132.568 69.4766 133.677 68.4922C134.786 67.5078 135.341 66.2188 135.341 64.625C135.341 63.0781 134.888 61.9688 133.982 61.2969C133.075 60.6094 131.364 59.9297 128.849 59.2578C125.927 58.4766 123.763 57.7422 122.357 57.0547C120.95 56.3516 119.825 55.3594 118.982 54.0781C118.153 52.7812 117.739 51.25 117.739 49.4844C117.739 46.75 118.646 44.5703 120.458 42.9453C122.286 41.3047 124.575 40.4844 127.325 40.4844C129.935 40.4844 132.357 41.3281 134.591 43.0156V40.8359H138.575V50.7266H134.591V48.4531C132.919 45.9375 130.614 44.6797 127.677 44.6797C125.896 44.6797 124.528 45.0938 123.575 45.9219C122.622 46.7344 122.146 47.7109 122.146 48.8516C122.146 49.7266 122.388 50.5 122.872 51.1719C123.357 51.8281 123.974 52.3125 124.724 52.625C125.474 52.9375 126.95 53.375 129.153 53.9375C132.028 54.6875 134.114 55.3906 135.411 56.0469C136.708 56.6875 137.825 57.7656 138.763 59.2812C139.7 60.7969 140.169 62.5391 140.169 64.5078C140.169 67.2891 139.185 69.5859 137.216 71.3984C135.263 73.2109 132.841 74.1172 129.95 74.1172C126.982 74.1172 124.31 73.0469 121.935 70.9062V73.6016H117.857Z" stroke="black" stroke-width="2" mask="url(#path-1-outside-1)"/>
</svg>
